<?xml version="1.0" encoding="UTF-8" standalone="no"?>
<!DOCTYPE svg PUBLIC "-//W3C//DTD SVG 1.1//EN" "http://www.w3.org/Graphics/SVG/1.1/DTD/svg11.dtd">
<svg width="100%" height="100%" viewBox="0 0 249 34" version="1.1" xmlns="http://www.w3.org/2000/svg" xmlns:xlink="http://www.w3.org/1999/xlink" xml:space="preserve" xmlns:serif="http://www.serif.com/" style="fill-rule:evenodd;clip-rule:evenodd;stroke-linejoin:round;stroke-miterlimit:2;">
    <g id="Layer_1-2">
        <path d="M239.62,13.19C240.405,13.159 241.171,13.448 241.74,13.99C242.54,14.77 242.82,16.12 242.82,17.99L242.82,18.51L235.4,18.51C235.298,16.986 235.781,15.48 236.75,14.3C237.488,13.518 238.55,13.122 239.62,13.23M245.43,11.64C243.916,10.065 241.804,9.203 239.62,9.27C233.3,9.27 228.81,14.03 228.81,20.9C228.81,28.29 233.57,33.57 239.9,33.57C242.944,33.469 245.889,32.455 248.35,30.66L246.52,26.96C244.948,28.216 243.011,28.932 241,29C239.526,28.929 238.117,28.366 237,27.4C235.895,25.974 235.331,24.202 235.41,22.4L248.36,22.4C248.36,22.4 249.15,15.29 245.44,11.58M108.14,13.17C108.923,13.137 109.686,13.427 110.25,13.97C111.05,14.75 111.31,16.1 111.31,17.97L111.31,18.49L103.94,18.49C103.838,16.978 104.293,15.479 105.22,14.28C105.981,13.501 107.056,13.108 108.14,13.21M114,11.6C112.479,10.03 110.365,9.169 108.18,9.23C101.81,9.23 97.3,14 97.3,20.86C97.3,28.25 102.07,33.53 108.42,33.53C111.459,33.434 114.399,32.419 116.85,30.62L115,26.92C113.43,28.2 111.484,28.931 109.46,29C107.986,28.925 106.579,28.362 105.46,27.4C104.361,25.973 103.808,24.199 103.9,22.4L116.82,22.4C116.82,22.4 117.62,15.29 113.92,11.58M155.92,5.25C161.71,5.25 163.57,11.32 163.57,16.34C163.57,19.25 163.02,28.23 155.92,28.23C148.52,28.23 147.98,19.23 147.98,16.34C147.98,11.34 150.08,5.25 155.92,5.25M155.92,0.25C147.71,0.25 141.36,7.13 141.36,16.36C141.36,26.36 147.45,33.53 155.92,33.53C164.39,33.53 170.42,26.4 170.42,16.36C170.42,7.13 164.09,0.25 155.92,0.25M222.92,28.49C219.24,28.49 216.92,25.34 216.92,20.86C216.92,15.86 220.09,13.72 222.92,13.72C224.312,13.741 225.681,14.083 226.92,14.72L225.64,9.5C224.612,9.185 223.545,9.017 222.47,9C214.83,9 210.61,15.07 210.61,21.15C210.61,25.36 213.23,33.28 222.22,33.28C224.408,33.211 226.522,32.474 228.28,31.17L226.95,27.17C225.789,28.018 224.388,28.474 222.95,28.47M129.75,29.28C128.17,29.28 127.37,27.42 127.37,24.28L127.37,13.72L132.66,13.72L131.61,9.72L127.4,9.72L127.4,4.47L121.33,4.47L121.33,9.77L117.9,9.77L118.71,13.77L121.33,13.77L121.33,25.86C121.33,30.86 123.46,33.53 127.95,33.53C129.991,33.533 131.994,32.976 133.74,31.92L132.69,28.25C131.847,28.883 130.833,29.249 129.78,29.3M77.5,22.42C77.5,21.91 71.16,0 71.16,0L63.25,0L60.08,33L66.15,33L68,10L68.25,10L74.6,33L80.4,33L86.74,10L87,10L88.83,33L94.91,33L92,0L83.86,0C83.86,0 77.79,21.91 77.5,22.42M189.2,9.77L181.28,9.77L181.28,7.9C181.28,5.27 183.14,4.75 183.67,4.75C184.581,4.575 185.524,4.762 186.3,5.27L185.24,0.79C184.373,0.601 183.487,0.51 182.6,0.52C179.17,0.52 175.46,3.17 175.46,8.71L175.46,9.77L172,9.77L172.81,13.77L175.43,13.77L175.43,32.77L181.25,32.77L181.25,13.77L188.9,13.77L188.9,32.77L195,32.77L195,13.77L201.31,13.77L201.31,32.77L207.4,32.77L207.4,9.77L195,9.77L195,7.9C195,5.27 196.84,4.75 197.36,4.75C198.28,4.575 199.234,4.761 200.02,5.27L199,0.79C198.13,0.601 197.241,0.511 196.35,0.52C192.94,0.52 189.23,3.17 189.23,8.71L189.2,9.77Z" style="fill-rule:nonzero;"/>
        <path d="M10.19,11.37C6.76,12.15 3.44,11.12 0,10L0,7.87C1.771,8.28 3.61,8.301 5.39,7.93C12.47,6.37 18.12,-3.36 28.57,1.31C38.44,5.66 49.73,1.7 51.17,1.18L51.17,6C46.62,7 39.67,7.56 33.31,4.77C22.86,0.08 17.21,9.82 10.19,11.37M19.19,17.54C26.19,15.99 31.86,6.24 42.31,10.92C45.134,12.11 48.148,12.787 51.21,12.92L51.21,9.3C46.564,9.866 41.851,9.218 37.53,7.42C27.08,2.8 21.43,12.54 14.42,14.1C9.61,15.2 5.07,12.61 0,11.25L0,14C7.14,14.26 12.92,19 19.15,17.57M26.56,23.74C33.56,22.18 39.28,12.44 49.73,17.05C50.194,17.283 50.676,17.48 51.17,17.64L51.17,15.33C49.043,15.032 46.967,14.443 45,13.58C34.54,8.91 28.83,18.71 21.82,20.2C14.81,21.69 8.64,15.85 0.33,16.76L0,16.76L0,21.76C1.584,20.943 3.301,20.415 5.07,20.2C13.38,19.29 19.67,25.27 26.56,23.71M29.22,26C22.34,27.54 16,21.57 7.66,22.47C4.881,22.879 2.248,23.975 0,25.66L0,33C3.13,29.28 7.577,26.908 12.41,26.38C20.78,25.67 27.08,31.51 34.02,29.89C39.54,28.65 44.29,22.36 51.17,21.97L51.17,18.77C41.49,15.47 35.97,24.49 29.17,25.98" style="fill-rule:nonzero;"/>
    </g>
</svg>
